<?xml version="1.0" encoding="utf-8"?>
<!-- Generator: Adobe Illustrator 15.1.0, SVG Export Plug-In . SVG Version: 6.00 Build 0)  -->
<!DOCTYPE svg PUBLIC "-//W3C//DTD SVG 1.1//EN" "http://www.w3.org/Graphics/SVG/1.1/DTD/svg11.dtd">
<svg version="1.1" id="Layer_1" xmlns="http://www.w3.org/2000/svg" xmlns:xlink="http://www.w3.org/1999/xlink" x="0px" y="0px"
	 width="792px" height="612px" viewBox="0 0 792 612" enable-background="new 0 0 792 612" xml:space="preserve">
<g>
	<path stroke="#555" stroke-width="16" d="M165.262,326.629l53.495-52.075c0.401-0.409,0.401-1.22,0-1.621c-0.409-0.41-1.219-0.41-1.62,0L112.167,374.651V262.597
		c0-0.61-0.401-1.012-1.011-1.012c-0.61,0-1.216,0.401-1.216,1.012v142.855c0,0.609,0.605,1.22,1.216,1.22
		c0.61,0,1.011-0.61,1.011-1.22v-27.759c0.205,0,0.205-0.2,0.409-0.2l51.064-49.443l57.139,78.012
		c0.204,0.405,0.409,0.61,0.811,0.61c0.205,0,0.41-0.205,0.61-0.409c0.61-0.201,0.61-1.012,0.2-1.417L165.262,326.629z"/>
	<path stroke="#555" stroke-width="16" d="M379.142,302.774c-2.326-6.055-5.135-12.789-10.673-20.428c-0.072-0.188-0.072-0.188-0.072-0.188
		c-0.072-0.189-0.072-0.189-0.072-0.189l-0.192,0.072c-0.072-0.192-0.072-0.192-0.072-0.192s0,0-0.185,0.072l-0.072-0.188
		c-0.193,0.072-0.193,0.072-0.193,0.072c-0.192,0.076-0.192,0.076-0.192,0.076c-0.185,0.072-0.185,0.072-0.185,0.072l-56.103,21.776
		l-12.431-32.345c-0.218-0.565-0.931-0.726-1.501-0.505c-0.565,0.217-0.798,0.738-0.578,1.308l12.793,33.288
		c0.144,0.381,0.405,0.497,0.667,0.614c0.264,0.112,0.525,0.232,0.713,0.16l56.482-21.924c4.947,7.214,7.607,13.574,9.79,19.248
		c14.466,37.642-5.858,81.921-44.443,96.751c-6.476,2.487-13.426,4.012-20.536,4.595l-29.124-201.544
		c9.791-24.912,15.717-44.809,20.106-59.546c0.904-3.026,1.73-5.806,2.507-8.338c17.616-57.436,15.903-87.623,15.887-87.843
		c0.109-18.138-8.944-30.604-24.219-33.343c-14.988-2.694-30.393,5.295-35.074,18.173c-3.01,8.28-2.488,25.803,1.596,53.572
		l16.917,117.057c-6.535,16.578-14.813,35.402-25.459,56.369c-0.083,0.084-0.16,0.184-0.213,0.304
		c-0.107,0.04-6.203,10.943-12.129,22.976c-0.272,0.49-0.521,0.963-0.798,1.461l0.064,0.035c-4.142,8.507-8.086,17.367-9.678,23.226
		c-2.263,8.25-3.427,16.512-3.382,24.528c0.2,10.124,1.986,19.858,5.55,29.128c7.266,18.914,21.899,33.26,41.365,40.976
		c10.861,4.182,22.627,5.899,34.191,5.204l18.53,128.223c1.774,12.062-1.253,24.087-8.528,33.866
		c-7.274,9.777-17.915,16.138-29.973,17.907c-12.05,1.781-24.08-1.252-33.863-8.527c-5.803-4.317-10.361-9.838-13.514-16.117
		c5.726,6.436,14.044,10.521,23.317,10.521c17.224,0,31.241-14.018,31.241-31.243c0-17.227-14.017-31.236-31.241-31.236
		c-17.227,0-31.238,14.01-31.238,31.236c0,3.977,0.773,7.766,2.134,11.268c2.581,10.954,8.844,20.561,17.978,27.354
		c8.341,6.203,18.24,9.462,28.449,9.462c2.339,0,4.697-0.173,7.057-0.518c12.644-1.858,23.806-8.531,31.431-18.783
		c7.627-10.255,10.801-22.867,8.948-35.512l-18.506-128.016c7.199-0.631,14.293-2.216,21.011-4.796
		c9.642-3.707,18.301-9.421,25.925-16.692c7.321-6.938,13.04-15.216,17.306-24.452c4.266-9.237,6.652-18.839,7.167-28.807
		C384.374,322.039,382.778,312.232,379.142,302.774z M266.161,512.921c16.005,0,29.022,13.021,29.022,29.022
		c0,16.007-13.018,29.027-29.022,29.027c-12.236,0-22.701-7.62-26.966-18.357c-0.293-1.256-0.561-2.52-0.75-3.809l-0.438,0.064
		c-0.546-2.222-0.872-4.534-0.872-6.926C237.137,525.941,250.159,512.921,266.161,512.921z M265.956,85.73
		c-3.974-27.018-4.542-44.68-1.702-52.495C268.01,22.908,279.302,16,291.348,16c1.82,0,3.667,0.158,5.5,0.49
		c14.129,2.531,22.499,14.176,22.395,31.224c0.024,0.292,1.686,30.14-15.789,87.127c-0.775,2.536-1.61,5.322-2.509,8.354
		c-4.164,13.966-9.71,32.583-18.629,55.717L265.956,85.73z M236.712,360.335c-6.324-16.456-6.99-34.003-2.035-52.188
		c1.665-6.178,5.99-15.816,10.388-24.765c15.922-28.854,27.55-54.19,36.25-75.87l28.545,197.503
		C280.441,406.596,248.871,391.962,236.712,360.335z"/>
	<path stroke="#555" stroke-width="16" d="M465.324,252.465c-0.406,0-0.811,0.204-1.013,0.605l-75.584,152.791c-0.205,0.401,0,1.212,0.605,1.417
		c0,0,0.205,0.204,0.409,0.204c0.402,0,0.811-0.409,1.011-0.811l20.466-41.338h110.438l21.479,41.539
		c0.201,0.405,1.011,0.609,1.421,0.405c0.605-0.205,0.811-1.016,0.605-1.417L466.335,253.07
		C466.133,252.669,465.729,252.465,465.324,252.465z M412.438,363.104l52.887-107.191l55.316,107.191H412.438z"/>
	<path stroke="#555" stroke-width="16" d="M689.519,305.15c-4.053-9.321-9.522-17.833-16.617-24.923c-7.094-7.294-15.399-13.173-24.516-17.021
		c-9.727-4.257-19.863-6.284-30.195-6.284s-20.467,2.027-29.99,6.284c-9.119,3.848-17.427,9.727-24.521,17.021
		c-7.09,7.09-12.56,15.602-16.612,24.923c-3.852,9.521-6.082,19.857-6.082,30.194c0,42.55,34.652,77.402,77.205,77.402
		c42.555,0,77.207-34.853,77.207-77.402C695.397,325.008,693.365,314.672,689.519,305.15z M618.19,410.52
		c-41.337,0-74.975-33.838-74.975-75.175c0-42.148,33.638-76.191,74.975-76.191c41.338,0,74.975,34.043,74.975,76.191
		C693.165,376.682,659.528,410.52,618.19,410.52z"/>
</g>
</svg>
